# xmcd
# 
# Track frame offsets:
#     182
#     15005
#     29937
#     43785
#     57907
#     72077
#     90480
#     103532
#     116817
#     136430
#     161450
#     182747
#     203315
#     219312
#     230432
#     246967
#     264465
#     278685
#     299732
#     312885
# 
# Disc length: 4467
# 
# Revision: 1
# Processed by: cddbd v1.5.2PL0 Copyright (c) Steve Scherf et al.
# Submitted via: BonkEnc v1.0.8
# 
DISCID=1c117114
DTITLE=Walter Horton and Paul Butterfield - An Offer You Can't Refuse
DYEAR=1972
DGENRE=Blues
TTITLE0=Easy
TTITLE1=Have A Good Time
TTITLE2=Mean Mistreater
TTITLE3=In The Mood
TTITLE4=West Side Blues
TTITLE5=Louise
TTITLE6=Tin Pin Alley
TTITLE7=Walter's Boogie This It is
TTITLE8=Jukin' With Walter
TTITLE9=Going Back To Arkansas
TTITLE10=Rockin' My Boogie
TTITLE11=Blues With A Feeling
TTITLE12=That Ain't It
TTITLE13=Kentucky Fried
TTITLE14=Everything's Gonna Be Alright
TTITLE15=Poor Boy
TTITLE16=Got My Mojo Working
TTITLE17=Last Night
TTITLE18=Loaded
TTITLE19=One Room Country Shack
EXTD=YEAR: 1972
EXTT0=
EXTT1=
EXTT2=
EXTT3=
EXTT4=
EXTT5=
EXTT6=
EXTT7=
EXTT8=
EXTT9=
EXTT10=
EXTT11=
EXTT12=
EXTT13=
EXTT14=
EXTT15=
EXTT16=
EXTT17=
EXTT18=
EXTT19=
PLAYORDER=
